<svg width="108" height="45" viewBox="0 0 108 45" fill="none" xmlns="http://www.w3.org/2000/svg">
<g clip-path="url(#clip0_1_776)">
<path d="M25.3092 10.3741C25.1634 10.3349 25.0129 10.3156 24.8619 10.3167H13.6162C12.3238 10.3423 11.1962 11.4732 10.8003 12.6291C7.20017 23.4192 3.60008 34.2095 0 45C6.47013 44.091 12.9586 43.3398 19.4655 42.7463C20.092 40.0144 20.7184 37.282 21.3449 34.5493C20.7836 33.0875 20.2465 31.6191 19.7336 30.144C21.0198 28.9972 22.1894 27.7272 23.2256 26.3523C24.2868 21.7276 25.3478 17.1031 26.4086 12.4788C26.663 11.6004 26.1743 10.6185 25.3092 10.3741ZM14.9819 15.9539C16.7623 15.909 18.5427 15.8674 20.3231 15.8292C19.4812 18.9826 18.6394 22.1363 17.7979 25.2905C15.879 27.4518 13.4446 29.0979 10.7188 30.0773C12.1405 25.3695 13.5615 20.6617 14.9819 15.9539ZM14.4388 37.8753C12.3505 38.0703 10.264 38.2781 8.17912 38.4988L8.96283 35.9009C10.9546 35.3226 12.8838 34.5488 14.7219 33.591C14.9099 34.1677 15.0038 34.4551 15.1987 35.0287C14.9452 35.9776 14.6919 36.9265 14.4388 37.8753V37.8753Z" fill="white"/>
<path d="M41.4494 10.3716C41.3006 10.3342 41.1475 10.3158 40.994 10.3167H29.7483C28.5443 10.3317 27.4855 11.3385 27.2224 12.4726C24.9755 22.5337 22.7282 32.595 20.4804 42.6565C22.648 42.4695 24.8168 42.2984 26.9869 42.1434L28.4058 34.394C30.668 33.846 32.8637 33.0567 34.8866 31.8953C34.4242 35.1787 33.9617 38.4605 33.499 41.7407C35.6707 41.6272 37.8424 41.5299 40.0142 41.4489L42.8333 12.3922C42.9686 11.4713 42.3014 10.5941 41.4494 10.3716ZM35.9221 24.5443C34.2708 26.5948 31.9228 28.1235 29.41 28.9084L31.8438 15.6185C33.6255 15.5935 35.4072 15.5713 37.1888 15.5518L35.9221 24.5443Z" fill="white"/>
<path d="M75.8648 10.3167H70.7535L75.0592 39.6902C75.2778 41.0231 76.7162 41.8579 77.9723 41.9414C81.9085 42.1908 85.84 42.4967 89.7667 42.8591L88.4831 37.4352C85.9492 37.2336 83.4137 37.052 80.8766 36.8903C79.2039 28.0324 77.5333 19.1746 75.8648 10.3167Z" fill="white"/>
<path d="M98.355 16.0973L96.4267 10.3167H84.8478C83.7107 10.3049 83.0204 11.4582 83.3305 12.4919C85.6137 21.9188 87.8974 31.3458 90.1815 40.7731C90.5292 42.1259 91.97 43.0599 93.3075 43.2045C98.2178 43.7145 103.116 44.313 108.003 45L106.074 39.2195C102.608 38.7988 99.1358 38.4171 95.658 38.0742C94.8837 35.2986 94.1096 32.5229 93.3357 29.7469C96.618 29.9871 99.899 30.2544 103.179 30.5486L101.25 24.7681C98.096 24.5582 94.9409 24.3674 91.7852 24.1958C91.0109 21.4194 90.2368 18.6436 89.4629 15.8685C92.4282 15.937 95.3922 16.0133 98.355 16.0973Z" fill="white"/>
<path d="M56.2872 10.3167H43.7686L43.2987 15.5C44.8185 15.49 46.3384 15.4817 47.8582 15.4751L46.5088 41.2675C48.6826 41.2259 50.8564 41.202 53.0303 41.1958L53.205 15.4614C54.2675 15.4614 55.33 15.4614 56.3925 15.4614H57.6498C58.7503 15.4639 59.8512 15.4676 60.9525 15.4726L62.4805 41.2831C64.6522 41.3338 66.8252 41.4001 68.9995 41.4819L66.2988 15.5119C67.7798 15.5235 69.2609 15.5372 70.7423 15.553L70.0075 10.3161H56.2879L56.2872 10.3167Z" fill="white"/>
<path d="M51.8938 0H50.5331V7.58105C50.5331 7.65216 50.5472 7.72258 50.5746 7.78828C50.6019 7.85398 50.6421 7.91366 50.6926 7.96392C50.7432 8.01418 50.8032 8.05402 50.8692 8.08118C50.9353 8.10834 51.0061 8.12228 51.0775 8.1222H53.6254V6.7687H51.8938V0Z" fill="white"/>
<path d="M57.6347 0.014347C57.5937 0.00459197 57.5516 -0.000222232 57.5094 7.87376e-06H54.5212C54.3769 0.000173096 54.2386 0.0573253 54.1367 0.158909C54.0347 0.260493 53.9774 0.3982 53.9774 0.541778V8.1222H55.3375V6.14465C55.8225 6.04427 56.2834 5.85163 56.695 5.57732V8.1222H58.0557V0.541778C58.0558 0.419454 58.0142 0.300718 57.9377 0.204934C57.8613 0.10915 57.7545 0.0419687 57.6347 0.014347V0.014347ZM56.695 3.67831C56.3821 4.18251 55.9005 4.56068 55.335 4.74627V1.3535H56.695V3.67831Z" fill="white"/>
</g>
<defs>
<clipPath id="clip0_1_776">
<rect width="108" height="45" fill="white"/>
</clipPath>
</defs>
</svg>
