<svg width="16" height="18" viewBox="0 0 16 18" fill="none" xmlns="http://www.w3.org/2000/svg">
<path d="M4.39134 11.0944L7.97593 2.37861C8.07504 2.13763 8.29171 1.95755 8.55659 1.89599L14.4637 0.52323C15.0041 0.397641 15.5209 0.797805 15.4993 1.32515L15.2679 6.98898C15.2574 7.24423 15.1182 7.47913 14.8936 7.62018L6.6373 12.8067C6.6021 12.8288 6.56562 12.8481 6.52819 12.8647L8.01684 13.9944C8.29761 14.2075 8.3431 14.5961 8.11845 14.8624L7.8279 15.2068C7.60325 15.4731 7.19353 15.5163 6.91277 15.3032L5.21036 14.0112L4.19615 14.8099C4.5309 15.4377 4.47202 16.2196 3.97842 16.8048C3.30447 17.6037 2.07531 17.7331 1.23301 17.0939C0.390708 16.4546 0.254232 15.2888 0.928181 14.4899C1.38742 13.9455 2.10447 13.712 2.78124 13.8207L3.44387 12.6706L1.75641 11.39C1.47564 11.1769 1.43015 10.7883 1.6548 10.522L1.94535 10.1776C2.17 9.91129 2.57972 9.86815 2.86048 10.0812L4.35321 11.2141C4.36248 11.1737 4.37515 11.1337 4.39134 11.0944Z" fill="white"/>
</svg>
